<svg xmlns="http://www.w3.org/2000/svg" xmlns:xlink="http://www.w3.org/1999/xlink" width="175" height="25.174" viewBox="0 0 175 25.174">
  <defs>
    <linearGradient id="linear-gradient" x1="0.001" y1="0.5" x2="1" y2="0.5" gradientUnits="objectBoundingBox">
      <stop offset="0" stop-color="#a6a6a6" stop-opacity="0.8"/>
      <stop offset="0.01" stop-color="#aeaeae" stop-opacity="0.82"/>
      <stop offset="0.05" stop-color="#c1c1c1" stop-opacity="0.878"/>
      <stop offset="0.1" stop-color="#d1d1d1" stop-opacity="0.922"/>
      <stop offset="0.15" stop-color="#ddd" stop-opacity="0.961"/>
      <stop offset="0.21" stop-color="#e6e6e6" stop-opacity="0.98"/>
      <stop offset="0.29" stop-color="#ebebeb"/>
      <stop offset="0.475" stop-color="#ececec"/>
      <stop offset="0.485" stop-color="#e5e5e5"/>
      <stop offset="0.491" stop-color="#d2d2d2"/>
      <stop offset="0.506" stop-color="#b2b2b2"/>
      <stop offset="0.522" stop-color="#878787"/>
      <stop offset="0.54" stop-color="#797979"/>
      <stop offset="0.6" stop-color="#959595"/>
      <stop offset="0.62" stop-color="#9c9c9c"/>
      <stop offset="0.65" stop-color="#a3a3a3"/>
      <stop offset="0.88" stop-color="#d1d1d1"/>
      <stop offset="1" stop-color="#e3e3e3"/>
    </linearGradient>
  </defs>
  <path id="Path_1368" data-name="Path 1368" d="M1364.242,1260.78a14.206,14.206,0,0,0-5.549,1.024c-1.373.666-3.729,2.316-3.729,5.273a6.329,6.329,0,0,0,2.982,5.468c2.129,1.365,6.6,4.168,7.954,5.094a3.072,3.072,0,0,1,.959,4.063c-.682,1.1-2.706,1.625-4.875,1.69a13.736,13.736,0,0,1-4.6-.732l-1.105-3.932H1354.6l.325,6.817s6.5.228,8.449.228a15.162,15.162,0,0,0,5.932-1.048,6.592,6.592,0,0,0,2.99-2.657,5.855,5.855,0,0,0,.812-3.193,7.01,7.01,0,0,0-3.088-5.687c-2.121-1.479-6.126-3.9-7.686-4.875a3.039,3.039,0,0,1-1.414-2.567c0-1.122,1.023-2.324,3.291-2.576a11.974,11.974,0,0,1,5.078.642l.813,3.932h1.389v-6.654s-5.419-.309-7.248-.309h-.114m-77.813,12.082V1263.4h.358c4.94,0,5.687,2.259,5.687,4.875,0,3.518-2.608,4.64-5.582,4.648ZM1276,1261.08v1.454l3.941.552v20.443l-3.941.553v1.454h14.251v-1.463l-3.933-.553v-8.393h1.406a3.372,3.372,0,0,1,2.844,1.812c1.17,1.625,3.729,5.2,4.119,5.688,1.324,1.625,3.193,2.9,6.768,2.9h4.566v-1.462a11.5,11.5,0,0,1-1.4-.228,5.4,5.4,0,0,1-2.438-1.625c-.544-.666-3.883-5.3-5.687-7.386a3.909,3.909,0,0,0-2.088-1.251c3.039-1.17,4.363-2.941,4.363-5.687,0-3.656-3.079-6.6-8.6-6.8h-1.089Zm56.55,0v1.5l3.932.52v13.642c-.114,4.875-2.592,6.5-6.7,6.5-4.241,0-6.67-1.536-6.719-6.857v-13.317l3.933-.528v-1.47h-14.406v1.454l3.932.528v13.284a9.772,9.772,0,0,0,1.69,6.11c2.438,3.055,6.118,3.5,10.708,3.5,4.063,0,7.15-.682,9.287-2.941,1.43-1.5,2.25-3.713,2.2-6.89v-13.065l3.932-.528v-1.454Zm-78.463,0v1.5l3.932.52v13.642c-.122,4.875-2.592,6.5-6.711,6.5-4.241,0-6.671-1.536-6.711-6.857-.049-5.492,0-13.317,0-13.317l3.932-.528v-1.47h-14.454v1.454l3.932.528v13.284a9.771,9.771,0,0,0,1.69,6.11c2.438,3.055,6.118,3.5,10.708,3.5,4.063,0,7.15-.682,9.3-2.941,1.422-1.5,2.242-3.713,2.193-6.89v-13.065l3.933-.528v-1.454Zm-38.407,0h-3.25l-10.384,22.433-3.933.593v1.43h12.131v-1.462l-4.014-.569,2.234-5.306h9.051l2.543,5.355-3.932.52v1.462h14.625v-1.422l-3.941-.6Zm-6.224,14.812,3.388-7.857,3.632,7.857Z" transform="translate(-1198.11 -1260.777)" fill="url(#linear-gradient)"/>
</svg>
