<svg xmlns="http://www.w3.org/2000/svg" width="30" height="19.091" viewBox="0 0 30 19.091">
  <path id="ic_people_24px" d="M21.455,13.182a4.091,4.091,0,1,0-4.091-4.091A4.074,4.074,0,0,0,21.455,13.182Zm-10.909,0A4.091,4.091,0,1,0,6.455,9.091,4.074,4.074,0,0,0,10.545,13.182Zm0,2.727C7.368,15.909,1,17.5,1,20.682v3.409H20.091V20.682C20.091,17.5,13.723,15.909,10.545,15.909Zm10.909,0c-.4,0-.845.027-1.323.068a5.754,5.754,0,0,1,2.686,4.7v3.409H31V20.682C31,17.5,24.632,15.909,21.455,15.909Z" transform="translate(-1 -5)" fill="#ad7c59"/>
</svg>
